<svg width="32" height="32" viewBox="0 0 32 32" fill="none" xmlns="http://www.w3.org/2000/svg">
<path d="M12.9399 24.5609L5.43987 17.0609C4.85338 16.4759 4.85338 15.5249 5.43987 14.9399L12.9399 7.43988C13.5264 6.85338 14.4759 6.85338 15.0609 7.43988C15.6459 8.02638 15.6474 8.97587 15.0609 9.56087L10.1214 14.5004H24.5004C25.3284 14.5004 26.0004 15.1724 26.0004 16.0004C26.0004 16.8284 25.3284 17.5004 24.5004 17.5004H10.1214L15.0609 22.4399C15.3534 22.7324 15.5004 23.1164 15.5004 23.5004C15.5004 23.8844 15.3534 24.2684 15.0609 24.5609C14.4744 25.1474 13.5249 25.1474 12.9399 24.5609Z" fill="black"/>
</svg>
