<svg width="32" height="32" viewBox="0 0 32 32" fill="none" xmlns="http://www.w3.org/2000/svg">
<path d="M16 28C22.627 28 28 22.627 28 16C28 9.373 22.627 4 16 4C9.373 4 4 9.373 4 16C4 22.627 9.373 28 16 28ZM16 6.25C21.385 6.25 25.75 10.615 25.75 16C25.75 21.385 21.385 25.75 16 25.75C10.615 25.75 6.25 21.385 6.25 16C6.25 10.615 10.615 6.25 16 6.25Z" fill="black"/>
<path d="M19.6855 11.4355L17.5645 9.31451L10.879 16L17.5645 22.6855L19.6855 20.5645L15.121 16L19.6855 11.4355Z" fill="black"/>
</svg>
