<svg width="32" height="32" viewBox="0 0 32 32" fill="none" xmlns="http://www.w3.org/2000/svg">
<path d="M4 16C4 22.627 9.373 28 16 28C22.627 28 28 22.627 28 16C28 9.373 22.627 4 16 4C9.373 4 4 9.373 4 16ZM25.75 16C25.75 21.385 21.385 25.75 16 25.75C10.615 25.75 6.25 21.385 6.25 16C6.25 10.615 10.615 6.25 16 6.25C21.385 6.25 25.75 10.615 25.75 16Z" fill="black"/>
<path d="M20.5645 19.6855L22.6855 17.5645L16 10.879L9.31445 17.5645L11.4355 19.6855L16 15.121L20.5645 19.6855Z" fill="black"/>
</svg>
