<svg width="32" height="32" viewBox="0 0 32 32" fill="none" xmlns="http://www.w3.org/2000/svg">
<path d="M16 4C9.373 4 4 9.373 4 16C4 22.627 9.373 28 16 28C22.627 28 28 22.627 28 16C28 9.373 22.627 4 16 4ZM16 25.75C10.615 25.75 6.25 21.385 6.25 16C6.25 10.615 10.615 6.25 16 6.25C21.385 6.25 25.75 10.615 25.75 16C25.75 21.385 21.385 25.75 16 25.75Z" fill="black"/>
<path d="M19.75 10L16 13.75L12.25 10L10 12.25L13.75 16L10 19.75L12.25 22L16 18.25L19.75 22L22 19.75L18.25 16L22 12.25L19.75 10Z" fill="black"/>
</svg>
