<svg width="32" height="32" viewBox="0 0 32 32" fill="none" xmlns="http://www.w3.org/2000/svg">
<path d="M27.7811 23.2811L20.5001 16.0001L27.7811 8.7191C27.8591 8.6411 27.9161 8.5496 27.9521 8.4521C28.0511 8.1851 27.9941 7.8731 27.7811 7.6586L24.3416 4.2191C24.1271 4.0046 23.8151 3.9476 23.5481 4.0481C23.4506 4.0841 23.3591 4.1411 23.2811 4.2191L16.0001 11.5001L8.7191 4.2191C8.6411 4.1411 8.5496 4.0841 8.4521 4.0481C8.1851 3.9491 7.8731 4.0046 7.6586 4.2191L4.2191 7.6586C4.0046 7.8731 3.9476 8.1851 4.0481 8.4521C4.0841 8.5496 4.1411 8.6411 4.2191 8.7191L11.5001 16.0001L4.2191 23.2811C4.1411 23.3591 4.0841 23.4506 4.0481 23.5481C3.9491 23.8151 4.0046 24.1271 4.2191 24.3416L7.6586 27.7811C7.8731 27.9956 8.1851 28.0526 8.4521 27.9521C8.5496 27.9161 8.6411 27.8591 8.7191 27.7811L16.0001 20.5001L23.2811 27.7811C23.3591 27.8591 23.4506 27.9161 23.5481 27.9521C23.8151 28.0511 24.1271 27.9956 24.3416 27.7811L27.7811 24.3416C27.9956 24.1271 28.0526 23.8151 27.9521 23.5481C27.9161 23.4506 27.8591 23.3591 27.7811 23.2811Z" fill="black"/>
</svg>
