<svg width="32" height="32" viewBox="0 0 32 32" fill="none" xmlns="http://www.w3.org/2000/svg">
<path d="M16 8C10.7665 8 6.229 11.048 4 15.5C6.229 19.952 10.7665 23 16 23C21.2335 23 25.771 19.952 28 15.5C25.771 11.048 21.2335 8 16 8ZM21.9175 11.978C23.3275 12.878 24.523 14.0825 25.42 15.5C24.523 16.919 23.3275 18.1235 21.9175 19.022C20.146 20.1515 18.1 20.75 16.0015 20.75C13.903 20.75 11.857 20.153 10.084 19.022C8.674 18.122 7.4785 16.9175 6.5815 15.5C7.4785 14.081 8.674 12.8765 10.084 11.978C10.1755 11.9195 10.2685 11.8625 10.3615 11.807C10.1275 12.4475 10 13.139 10 13.8605C10 17.174 12.6865 19.8605 16 19.8605C19.3135 19.8605 22 17.174 22 13.8605C22 13.139 21.8725 12.4475 21.6385 11.807C21.7315 11.8625 21.8245 11.9195 21.916 11.978H21.9175ZM16 13.25C16 14.492 14.992 15.5 13.75 15.5C12.508 15.5 11.5 14.492 11.5 13.25C11.5 12.008 12.508 11 13.75 11C14.992 11 16 12.008 16 13.25Z" fill="black"/>
</svg>
