<svg width="32" height="32" viewBox="0 0 32 32" fill="none" xmlns="http://www.w3.org/2000/svg">
<path d="M14.5 7.5V7.125C14.5 6.5055 13.993 6 13.375 6H9.625C9.0055 6 8.5 6.5055 8.5 7.125V7.5H4V10.5H8.5V10.875C8.5 11.493 9.0055 12 9.625 12H13.375C13.993 12 14.5 11.493 14.5 10.875V10.5H28V7.5H14.5ZM10 10.5V7.5H13V10.5H10ZM23.5 14.625C23.5 14.007 22.993 13.5 22.375 13.5H18.625C18.007 13.5 17.5 14.007 17.5 14.625V15H4V18H17.5V18.375C17.5 18.993 18.007 19.5 18.625 19.5H22.375C22.993 19.5 23.5 18.993 23.5 18.375V18H28V15H23.5V14.625ZM19 18V15H22V18H19ZM14.5 22.125C14.5 21.507 13.993 21 13.375 21H9.625C9.0055 21 8.5 21.507 8.5 22.125V22.5H4V25.5H8.5V25.875C8.5 26.493 9.0055 27 9.625 27H13.375C13.993 27 14.5 26.493 14.5 25.875V25.5H28V22.5H14.5V22.125ZM10 25.5V22.5H13V25.5H10Z" fill="black"/>
</svg>
