<svg width="40" height="43" viewBox="0 0 40 43" fill="none" xmlns="http://www.w3.org/2000/svg">
<g id="Group 8">
<path id="Vector" d="M24.2457 32.6768L28.9283 31.7235L30.6382 30.0298L30.0111 29.0952C30.5226 28.4824 30.9853 27.8296 31.3917 27.1464L32.4886 27.4162L33.5154 25.2441L32.6056 24.5815C32.8762 23.8363 33.0895 23.0659 33.2377 22.2802L34.3576 22.1606L34.576 19.7729L33.4958 19.4608C33.4919 18.6753 33.4249 17.8813 33.2912 17.085L34.3154 16.5876L33.6986 14.2737L32.5739 14.3467C32.2941 13.5918 31.9611 12.8663 31.5735 12.183L32.3556 11.377L30.9823 9.41356L29.9509 9.86499C29.4312 9.25728 28.8652 8.69469 28.2612 8.18004L28.7205 7.15253L26.7528 5.77614L25.9352 6.55379C25.242 6.16124 24.5181 5.82479 23.7688 5.54551L23.8475 4.4228L21.5225 3.79968L21.0196 4.80606C20.2385 4.67392 19.4404 4.60178 18.635 4.59715L18.325 3.52006L15.9172 3.7283L15.7921 4.84826C15.4026 4.91931 15.0115 5.0034 14.6225 5.1046C14.2316 5.20878 13.853 5.3299 13.4798 5.46216L12.8161 4.55246L10.6277 5.56445L10.8926 6.65354C10.1964 7.05848 9.53714 7.51658 8.92549 8.01999L7.99007 7.39452L6.28014 9.08822L6.9049 10.0234" fill="#F7941D"/>
<path id="Vector_2" d="M8.12451 32.4335L10.961 35.2827L13.2485 36.0206L13.7832 35.0364C14.5612 35.2084 15.3519 35.3189 16.1434 35.3656L16.4132 36.4611L18.8067 36.3744L18.9704 35.2646C19.7538 35.1625 20.5328 34.9981 21.2952 34.769L21.9195 35.7062L24.129 34.8045L23.9042 33.7045C24.596 33.3407 25.266 32.9172 25.9073 32.4335L26.8209 33.1127L28.5783 31.505L27.993 30.5421C28.5299 29.948 29.0163 29.3203 29.4401 28.6635L30.514 28.9867L31.6117 26.8696L30.7354 26.1629C31.0312 25.4238 31.2658 24.6643 31.4405 23.8932L32.5605 23.8288L32.8645 21.4544L31.7991 21.0868C31.8247 20.2926 31.7865 19.497 31.686 18.7052L32.7138 18.26L32.1872 15.9145L31.0656 15.9305C30.8205 15.178 30.5146 14.438 30.1456 13.7223L30.9531 12.9537L29.654 10.9162L28.6072 11.3191C28.364 11.0066 28.1086 10.6987 27.8391 10.4005C27.5661 10.102 27.2837 9.82213 26.9941 9.5522L27.49 8.54706L25.5828 7.07252L24.7438 7.80676C24.0638 7.37571 23.3539 7.00182 22.6261 6.69087L22.7452 5.57533L20.4577 4.83739L19.9213 5.81978" fill="#262262"/>
</g>
</svg>
