<svg width="34" height="33" viewBox="0 0 34 33" fill="none" xmlns="http://www.w3.org/2000/svg">
<rect width="34" height="33" fill="#F5F5F5"/>
<g id="Vector">
<path d="M23 31.5H29V27L28.7794 26.21C29.2886 25.5947 29.7493 24.9394 30.154 24.2535L31.246 24.5244L32.2684 22.3437L31.3626 21.6785C31.632 20.9303 31.8443 20.1569 31.9919 19.368L33.1069 19.248L33.3244 16.8509L32.2489 16.5376C32.245 15.7489 32.1782 14.9519 32.0452 14.1524L33.0649 13.653L32.4508 11.33L31.331 11.4033C31.0524 10.6454 30.7209 9.917 30.3349 9.23105L31.1137 8.42187L29.7464 6.45069L28.7195 6.9039C28.202 6.29379 27.6385 5.72898 27.0371 5.2123L27.4944 4.18074L25.5353 2.79892L24.7213 3.57964C24.0311 3.18554 23.3103 2.84776 22.5643 2.56738L22.6427 1.44024L20.3278 0.814664L19.8271 1.82501C19.0494 1.69236 18.2549 1.61993 17.4529 1.61528L17.1443 0.533947L14.747 0.743005L14.6225 1.86738C14.2347 1.93871 13.8453 2.02313 13.4579 2.12473C13.0688 2.22932 12.6918 2.35092 12.3202 2.4837L11.6595 1.57042L9.48057 2.5864L9.74437 3.67978C9.05116 4.08632 8.39479 4.54623 7.78581 5.05162L6.85448 4.42368L5.15202 6.12407L5.77405 7.06294" fill="#B7B7B7"/>
<path d="M10.4205 3.19433L5.7583 4.15141L4.05584 5.85179L4.68023 6.79003C4.17101 7.40528 3.7103 8.06065 3.30563 8.74651L2.21358 8.47562L1.19125 10.6563L2.09707 11.3215C1.8276 12.0697 1.61529 12.8431 1.46771 13.6319L0.352713 13.752L0.135254 16.1491L1.21073 16.4624C1.21463 17.2511 1.28138 18.0481 1.41444 18.8476L0.39469 19.347L1.00881 21.67L2.12861 21.5967C2.40725 22.3546 2.73875 23.083 3.12468 23.7689L2.34596 24.5781L3.71324 26.5493L4.74014 26.0961C5.25758 26.7062 5.82113 27.271 6.42248 27.7877L5.96523 28.8193L7.92434 30.2011L8.73837 29.4204C9.42855 29.8145 10.1493 30.1522 10.8953 30.4326L10.8169 31.5598L13.1318 32.1853L13.6325 31.175C14.4102 31.3076 15.2048 31.3801 16.0067 31.3847L16.3153 32.466L18.7126 32.257L18.8371 31.1326C19.2249 31.0613 19.6125 31.2766 19.9999 31.175C20.389 31.0704 20.1284 31.6925 20.4999 31.5598L21.8001 31.4296L23.9791 30.4136L23.7153 29.3202C24.4085 28.9137 25.0648 28.4538 25.6738 27.9484L26.6051 28.5763L28.3076 26.8759L27.6856 25.9371" fill="#B7B7B7"/>
</g>
</svg>
