<svg width="32" height="32" viewBox="0 0 32 32" fill="none" xmlns="http://www.w3.org/2000/svg">
<path d="M16 6.25C13.396 6.25 10.9465 7.264 9.106 9.106C7.2655 10.948 6.25 13.396 6.25 16C6.25 18.604 7.264 21.0535 9.106 22.894C10.948 24.7345 13.396 25.75 16 25.75C18.604 25.75 21.0535 24.736 22.894 22.894C24.7345 21.052 25.75 18.604 25.75 16C25.75 13.396 24.736 10.9465 22.894 9.106C21.052 7.2655 18.604 6.25 16 6.25ZM16 4C22.627 4 28 9.373 28 16C28 22.627 22.627 28 16 28C9.373 28 4 22.627 4 16C4 9.373 9.373 4 16 4ZM14.5 20.5H17.5V23.5H14.5V20.5ZM14.5 8.5H17.5V17.5H14.5V8.5Z" fill="black"/>
</svg>
