<svg width="110" height="47" viewBox="0 0 110 47" fill="none" xmlns="http://www.w3.org/2000/svg">
<g clip-path="url(#clip0_315_760)">
<path d="M16.7334 24.7102L29.2087 46.6922H38.2122L20.9871 17.1959L16.7334 24.7102Z" fill="#00002B"/>
<path d="M26.6318 24.7102L39.1072 46.6922H48.1106L30.8856 17.1959L26.6318 24.7102Z" fill="#00002B"/>
<path d="M6.69629 24.7566L19.1632 46.6922H28.0532L10.95 17.2382L6.69629 24.7566Z" fill="#00002B"/>
<path d="M0.970703 33.3756L8.97376 46.6922H17.6788L3.16902 21.6404L0.970703 33.3756Z" fill="#00002B"/>
<path d="M51.9694 23.8669L52.4612 15.661L50.3974 12.0684L48.5606 12.6967C47.7661 11.575 46.8835 10.5166 45.9251 9.53831L46.8624 7.83474L43.6974 5.16553L42.1884 6.38417C41.0661 5.60407 39.8766 4.90831 38.6324 4.31375L38.9308 2.39934L35.047 0.978288L34.0466 2.63547C32.7352 2.29392 31.3817 2.05356 29.9946 1.92284L29.6206 0H25.4887L25.1104 1.90176C23.7276 2.03248 22.3699 2.2644 21.0585 2.60596L20.0623 0.948771L16.1784 2.36139L16.4727 4.27579C15.2285 4.87036 14.039 5.56191 12.9125 6.33779L11.4035 5.11915L8.23424 7.77992L9.16737 9.48349C8.20481 10.4618 7.32212 11.516 6.5235 12.6376L4.68666 12.0093L2.61444 15.5978L4.06878 16.8797C3.50134 18.1194 3.02637 19.414 2.66068 20.7507L0.727169 20.7886L0.00420329 24.8831L1.81582 25.5873C1.76118 26.2662 1.72755 26.9535 1.72335 27.6451C1.72335 28.3408 1.75697 29.024 1.81162 29.7029L0 30.4028L0.714559 34.4889L2.64807 34.531C3.01376 35.8678 3.48452 37.1665 4.05197 38.4062L2.59343 39.6839L4.65724 43.2766L6.49408 42.6525" fill="#262262"/>
<path d="M56.3831 46.785H47.9219C47.552 46.785 47.283 46.7049 47.1149 46.5489C46.9636 46.4182 46.8375 46.1651 46.7408 45.7856L46.2784 44.0146C46.2574 43.9429 46.249 43.8501 46.249 43.7363C46.249 43.1544 46.4214 42.6526 46.7618 42.2225L49.7083 38.5033L48.2582 36.96H52.2681C53.1466 37.7654 53.7645 38.4611 54.1218 39.0473C54.4034 39.5237 54.7144 40.2996 55.0465 41.3833C55.3702 42.4249 55.8157 44.2254 56.3873 46.785H56.3831ZM52.3144 43.5255L51.5704 41.1219L49.6495 43.5255H52.3144Z" fill="#F7941D"/>
<path d="M75.886 46.9747L63.1963 47C62.6793 47 62.2715 46.747 61.9857 46.241C61.6621 46.747 61.3342 47 61.0022 47L48.2073 46.7681C47.703 46.7681 47.3289 46.4139 47.0935 45.7055C47.0262 45.5031 46.8875 44.7736 46.6689 43.517L59.4974 43.7405C58.3751 42.9351 57.3075 42.3025 56.2945 41.8387L55.2394 37.7822C57.0132 37.1075 58.7954 36.7659 60.5902 36.7533C61.0778 36.7533 61.8302 36.8292 62.8558 36.981C64.0033 37.1539 64.9574 37.3647 65.714 37.6135L66.7186 41.1851C66.3655 41.3622 65.8317 41.7502 65.1214 42.3489C64.411 42.9477 63.9234 43.4116 67.8577 43.7405L79.03 43.7152C75.142 45.4272 75.4951 46.5151 75.8902 46.9747H75.886ZM63.1164 40.0592C62.6961 39.9412 62.0572 39.8737 61.1955 39.861C60.4725 39.8484 59.8252 39.9116 59.2536 40.0592C59.7454 40.3966 60.4473 40.9616 61.351 41.7586L63.1164 40.0592Z" fill="#F7941D"/>
<path d="M89.08 46.9874H73.4564C72.952 46.9874 72.5779 46.6332 72.3425 45.9205C72.2752 45.7181 72.1365 44.9844 71.918 43.7278H75.1209L74.1373 36.1334H77.5588L77.8446 40.9194C78.6642 39.7514 79.2779 38.9544 79.6856 38.5159C80.0093 38.1785 80.396 37.8623 80.8584 37.5671C81.5267 37.137 82.2581 36.9262 83.0567 36.9262C84.3093 36.9262 85.3643 37.4533 86.2175 38.5075C86.8228 39.258 87.365 40.3586 87.8442 41.8134C88.2057 42.9224 88.6176 44.6471 89.0842 46.9874H89.08ZM85.0112 43.7278C84.8515 42.9899 84.717 42.4501 84.5993 42.1086C84.2168 41.008 83.6746 40.4598 82.9642 40.4598C82.5102 40.4598 81.9974 40.6833 81.4174 41.1303C81.0475 41.4128 80.8373 41.5899 80.7785 41.6532C80.5095 41.9441 79.9757 42.6357 79.1728 43.7278H85.0154H85.0112Z" fill="#F7941D"/>
<path d="M110 46.9873H88.4788C87.966 46.9873 87.5961 46.6331 87.365 45.9205C87.3061 45.735 87.1632 45.0055 86.9404 43.7278L99.3569 43.4874C99.0963 43.1838 98.882 42.7158 98.718 42.0833C98.5793 41.5351 98.5079 41.0206 98.4995 40.5399C98.4911 39.3592 98.945 38.3809 99.8571 37.6093C100.719 36.884 101.744 36.5213 102.942 36.5213C105.771 36.5213 107.839 38.693 109.138 43.032C109.277 43.4917 109.563 44.9717 109.995 46.9916L110 46.9873ZM101.795 35.3154H99.3107L98.7391 32.9624H101.164L101.795 35.3154ZM105.586 43.4284C105.443 42.564 105.157 41.7839 104.737 41.0881C104.199 40.1941 103.564 39.7387 102.837 39.7345C102.509 39.7261 102.249 39.8357 102.06 40.0592C101.871 40.2827 101.774 40.561 101.774 40.8899C101.774 41.476 102.081 41.9947 102.699 42.4417C103.598 43.0953 104.561 43.4242 105.586 43.4284ZM105.204 35.3154H102.724L102.135 32.9624H104.573L105.204 35.3154Z" fill="#F7941D"/>
<path d="M62.402 30.6727C62.402 30.7064 62.402 30.7528 62.4104 30.8119V30.9805C62.4104 32.5028 61.6412 33.7256 60.107 34.6491C58.7872 35.4419 57.3244 35.834 55.723 35.834C51.94 35.834 49.2373 34.1557 47.6148 30.8034C47.4887 30.5462 43.5839 27.7884 42.7979 25.6632L46.2445 25.1487C44.9415 21.5266 47.1146 23.5885 47.3584 24.0102C46.3496 19.92 50.3259 28.6023 50.7084 29.5553C51.154 30.6769 51.8223 31.4697 52.7092 31.9377C53.4658 32.3383 54.4998 32.5449 55.8112 32.5492C56.5804 32.5576 57.2445 32.3931 57.7994 32.0642C58.4761 31.6679 58.8124 31.1112 58.8124 30.3944C58.8124 28.6697 57.3664 25.3891 54.4788 20.5609H58.3206C59.2411 21.9524 60.0902 23.5759 60.872 25.4313C61.7505 27.5144 62.2591 29.2601 62.3978 30.6685L62.402 30.6727ZM53.8441 26.0764H51.3557L50.7757 23.7235H53.222L53.8441 26.0764Z" fill="#262262"/>
<path d="M67.6772 29.277H64.8106C64.3651 29.277 64.0582 28.9692 63.8943 28.3577L60.208 14.4635H63.5832L67.1855 28.4294C67.2821 28.8089 67.4461 29.0914 67.6772 29.2812V29.277Z" fill="#262262"/>
<path d="M77.8785 29.5216C77.8785 32.6841 75.6423 34.2654 71.17 34.2654C70.5059 34.2654 70.0309 34.2106 69.7409 34.0968C69.2995 33.9239 69.0137 33.5781 68.875 33.051L68.2529 30.6474C69.619 30.8836 70.5269 31.0016 70.9725 31.0016C71.8005 31.0016 72.5109 30.8667 73.0993 30.5968C73.8811 30.2426 74.272 29.6945 74.272 28.9565C74.272 27.6072 72.8849 24.2801 70.115 18.9839H73.9484C75.1379 21.126 76.029 22.9181 76.6175 24.3603C77.4581 26.4096 77.8785 28.13 77.8785 29.5174V29.5216Z" fill="#262262"/>
<path d="M94.0819 30.3395L92.0937 33.0467C90.2022 31.8998 88.6176 31.1576 87.344 30.8118C86.1419 30.4871 79.3452 30.3395 77.067 30.3395C76.4113 30.3395 75.9783 29.9516 75.7766 29.1715C75.7429 29.0324 75.6084 28.3366 75.373 27.0758H77.0081C77.4032 27.0758 82.7246 26.9872 82.8633 26.8354C83.002 26.6836 83.0693 26.4011 83.0693 26.0005C83.0693 25.6294 82.9936 25.0897 82.8423 24.3728C82.691 23.656 82.6111 23.1205 82.6069 22.7578C82.5985 22.0199 82.8717 21.4042 83.4265 20.9109C83.9604 20.4386 84.5993 20.1982 85.3474 20.1982C86.8648 20.1982 88.4327 20.9952 90.0467 22.5891C91.4044 23.9343 92.4468 25.4228 93.1698 27.0547L94.0861 30.3353L94.0819 30.3395ZM89.8365 28.1932C89.7062 27.5396 89.2775 26.7553 88.5545 25.8318C87.7643 24.8156 87.0834 24.3054 86.5033 24.2885C86.331 24.2801 86.2469 24.3728 86.2469 24.5542C86.2469 24.6975 86.2806 24.9126 86.3436 25.1951C86.4067 25.4776 86.4403 25.6927 86.4403 25.836C86.4403 26.1186 86.373 26.5487 86.2427 27.1222C87.302 27.3203 88.4957 27.6746 89.8281 28.189L89.8365 28.1932Z" fill="#262262"/>
<path d="M104.821 30.3397H93.6699C92.9554 30.3397 92.5224 29.8168 92.3711 28.7668C92.3333 28.4632 92.2534 27.9024 92.1357 27.0759H95.1705C95.1705 25.1446 95.6371 23.5507 96.5702 22.2941C97.6084 20.9026 99.0544 20.2068 100.916 20.2068C101.349 20.2068 101.778 20.249 102.198 20.3333L103.056 23.7446C102.266 23.5127 101.631 23.3989 101.143 23.3989C99.3822 23.3989 98.4953 24.626 98.4743 27.0759H103.981L104.83 30.3354L104.821 30.3397Z" fill="#262262"/>
<path d="M67.0969 12.4859C67.0969 12.5196 67.0969 12.566 67.1053 12.625V12.7937C67.1053 14.3159 66.3361 15.5388 64.8019 16.4623C63.4821 17.255 62.0193 17.6472 60.4179 17.6472C56.5635 17.6472 53.8607 15.9689 52.3097 12.6166C51.9735 11.8913 51.5195 10.698 50.9395 9.04078H53.1966C53.9406 9.04078 54.4324 9.25161 54.6762 9.67329C54.7813 9.85039 55.025 10.4197 55.4033 11.3726C55.8489 12.4943 56.5172 13.2871 57.4041 13.7551C58.1607 14.1557 59.1947 14.3623 60.5061 14.3665C61.2753 14.375 61.9394 14.2105 62.4943 13.8816C63.171 13.4852 63.5073 12.9286 63.5073 12.2118C63.5073 10.4871 62.0613 7.20649 59.1737 2.3783H63.0155C63.936 3.76983 64.7851 5.39328 65.5669 7.24865C66.4454 9.33173 66.954 11.0775 67.0927 12.4859H67.0969ZM58.539 7.8896H56.0507L55.4706 5.53665H57.9169L58.539 7.8896Z" fill="#00002B"/>
<path d="M75.1042 12.8738H65.7435C65.2391 12.8738 64.865 12.5196 64.6296 11.807C64.5624 11.6046 64.4236 10.8709 64.2051 9.61426H70.6781C70.1864 8.55163 69.2658 7.23179 67.9208 5.65894H71.8424C72.8933 6.94505 73.7255 8.26068 74.3434 9.59739L75.1 12.8738H75.1042ZM70.4428 16.1966H67.9502L67.387 13.8437H69.8123L70.4428 16.1966ZM73.8516 16.1966H71.3633L70.7832 13.8437H73.2211L73.8516 16.1966Z" fill="#00002B"/>
<path d="M88.0458 12.9835L86.0577 15.6906C84.1662 14.5437 82.5816 13.8015 81.308 13.4557C80.1058 13.1311 77.1131 12.8738 74.8349 12.8738C74.1792 12.8738 74.9988 12.5829 74.7971 11.807C74.7634 11.6678 74.6289 10.9721 74.3936 9.71127H76.0286C76.4237 9.71127 76.6885 9.63536 76.8273 9.47934C76.966 9.32332 77.0332 9.04502 77.0332 8.64442C77.0332 8.27335 76.9576 7.7336 76.8062 7.01676C76.6549 6.29991 76.5751 5.76438 76.5709 5.40174C76.5624 4.6638 76.8357 4.04816 77.3905 3.5548C77.9243 3.08252 78.5632 2.84216 79.3114 2.84216C80.8288 2.84216 82.3966 3.63913 84.0107 5.23307C85.3683 6.57821 86.4107 8.06673 87.1337 9.69861L88.05 12.9793L88.0458 12.9835ZM83.8005 10.8371C83.6702 10.1835 83.2415 9.39922 82.5185 8.47575C81.7283 7.45952 81.0474 6.94929 80.4673 6.93242C80.295 6.92399 80.2109 7.01676 80.2109 7.19808C80.2109 7.34145 80.2445 7.5565 80.3076 7.83902C80.3706 8.12155 80.4042 8.3366 80.4042 8.47997C80.4042 8.76249 80.337 9.1926 80.2067 9.76608C81.2659 9.96427 82.4597 10.3185 83.7921 10.8329L83.8005 10.8371Z" fill="#00002B"/>
<path d="M93.897 16.3442H91.0303C90.5848 16.3442 90.2779 16.0364 90.114 15.4249L86.4277 1.52649H89.803L93.4052 15.4924C93.5019 15.8719 93.6658 16.1544 93.897 16.3442Z" fill="#00002B"/>
<path d="M94.0655 5.32158H91.5814L91.0098 2.96863H93.4351L94.0655 5.32158ZM102.506 16.399H93.0484C92.5314 16.399 92.1573 16.0448 91.9345 15.3322C91.8504 15.0749 91.7033 14.3454 91.5015 13.1395H98.0839C97.6131 12.4142 96.7557 11.2714 95.5115 9.71544C94.3093 8.21006 93.4098 7.139 92.813 6.49806H96.9406C97.6762 7.26972 98.5715 8.40403 99.6223 9.90098C100.639 11.3473 101.312 12.4226 101.64 13.1268L102.506 16.4032V16.399ZM97.4702 5.32158H94.9903L94.4018 2.96863H96.8397L97.4702 5.32158Z" fill="#00002B"/>
<path fill-rule="evenodd" clip-rule="evenodd" d="M47.7321 27.3958L41.5407 26.2447L36.5094 25.3085L41.3642 25.6501L38.88 17.3557L37.0264 17.2883L26.9301 6H25.7321L21.9996 8.76619L17.7333 7.81321L16.9767 8.9686L17.5021 10.8493L10.5162 18.7683L9.60413 19.0846C8.45243 20.4255 7.46045 21.4882 6.35078 22.8713C5.9893 23.3224 6.04815 23.7357 6.32136 24.1995L7.08636 25.4814L6.47268 26.0549C4.577 27.8175 1.87428 32.0174 1.2606 34.7667L1 35.9137L1.88269 35.9348L1.99198 35.4245C2.63508 32.4475 5.03936 28.935 6.94345 27.1808L18.9817 16.0991L19.8223 18.6629L10.159 27.5603C7.73787 29.7867 5.17386 32.9577 4.47191 36.3016L4.33321 39.8353L2.87467 41.113L4.93848 44.7056L6.77531 44.0942L7.85976 43.428L9.79748 36.6938L23.8028 22.8291L23.3951 22.3399L9.30149 35.9769L22.8487 21.6821L21.3481 19.8731L24.1643 22.4749L30.6164 28.4416V39.2534L29.4815 40.2738V45.5068L30.0489 45.7725L29.6496 47.0628H30.7677L32.4532 45.0978L31.8353 47.0628H33.1888L34.786 45.0978L34.0715 47.0628H35.1895L36.5556 45.0978L36.047 47.0628H37.2954L38.6783 45.1231L38.094 47.0628H39.3256L40.5277 45.0978L40.1074 47.0628H41.2044C44.8655 42.1081 46.799 40.3286 49.7161 34.4125C50.83 32.1566 50.1322 27.8428 47.7279 27.3958M28.893 8.9939L36.5304 17.2672L36.1773 17.2545L28.9434 9.41557L27.6741 9.96797L28.893 8.9939ZM33.0332 25.2959L32.4826 25.6923L20.4318 11.0685L33.0332 25.2959ZM33.8277 17.4401L34.9205 17.2081L37.0852 24.4357L35.6813 23.47L32.8483 18.975L33.8277 17.4316V17.4401ZM48.5812 33.1095C48.5392 31.6716 48.1314 30.453 47.3286 29.4747L41.2086 27.3157L47.9885 28.7325C48.7703 29.8331 49.0688 31.7813 48.5812 33.1138M26.7199 6.32047L25.7237 6.70842L22.4494 9.23004L22.1635 8.96016L25.6439 6.42589L26.7241 6.31626L26.7199 6.32047ZM33.4199 25.0176L30.6121 27.0416L20.4024 17.1913L17.9476 8.80414L19.7256 9.38606L33.4199 25.0218V25.0176ZM35.6519 25.1483C40.6412 27.8681 36.9339 35.7155 30.217 44.5833L30.2254 40.9527L31.4738 39.7636V27.5392L32.8903 26.7296L34.0504 36.3986L33.5629 26.3459L35.6519 25.1483ZM18.368 13.9444L18.595 14.7624L11.7856 21.1002L7.58235 24.9838L18.368 13.9444ZM33.462 17.1575L32.3103 18.9497L35.2652 23.6598L25.274 12.0595L27.3756 10.4234L33.462 17.1575Z" fill="#F7941D"/>
</g>
<defs>
<clipPath id="clip0_315_760">
<rect width="110" height="47" fill="white"/>
</clipPath>
</defs>
</svg>
