<svg width="32" height="32" viewBox="0 0 32 32" fill="none" xmlns="http://www.w3.org/2000/svg">
<path d="M27.256 24.4225L21.571 19.588C20.983 19.0585 20.3545 18.817 19.8475 18.8395C21.19 17.2675 22 15.229 22 13C22 8.029 17.971 4 13 4C8.029 4 4 8.029 4 13C4 17.971 8.029 22 13 22C15.229 22 17.2675 21.19 18.8395 19.8475C18.8155 20.3545 19.0585 20.983 19.588 21.571L24.4225 27.256C25.2505 28.1755 26.602 28.2535 27.427 27.4285C28.252 26.6035 28.174 25.2505 27.2545 24.424L27.256 24.4225ZM13 18.9985C9.6865 18.9985 7 16.312 7 12.9985C7 9.685 9.6865 6.9985 13 6.9985C16.3135 6.9985 19 9.685 19 12.9985C19 16.312 16.3135 18.9985 13 18.9985Z" fill="black"/>
</svg>
