<svg width="32" height="32" viewBox="0 0 32 32" fill="none" xmlns="http://www.w3.org/2000/svg">
<path d="M16 4C9.3715 4 4 9.3715 4 16C4 22.6285 9.3715 28 16 28C22.6285 28 28 22.6285 28 16C28 9.3715 22.6285 4 16 4ZM21.8965 12.226L19.927 21.502C19.7905 22.1635 19.393 22.318 18.8395 22.0135L15.8395 19.7965L14.401 21.1975C14.233 21.361 14.101 21.4975 13.801 21.4975C13.4125 21.4975 13.477 21.352 13.3465 20.9815L12.325 17.626L9.358 16.702C8.716 16.5055 8.7115 16.0645 9.5035 15.751L21.0625 11.2885C21.5875 11.05 22.099 11.4145 21.8965 12.226Z" fill="black"/>
</svg>
