<svg width="32" height="32" viewBox="0 0 32 32" fill="none" xmlns="http://www.w3.org/2000/svg">
<path d="M24.4 7.4875C22.1545 5.2375 19.168 4 15.9865 4C9.433 4 4.099 9.334 4.099 15.892C4.099 17.9875 4.648 20.0365 5.6875 21.8365L4 28L10.3045 26.3455C12.043 27.292 13.999 27.7945 15.985 27.7945H15.9895C22.543 27.7945 27.8815 22.4605 27.8815 15.9025C27.8815 12.724 26.644 9.739 24.3985 7.489L24.4 7.4875ZM15.9895 25.7875C14.2135 25.7875 12.4735 25.309 10.9555 24.409L10.594 24.193L6.853 25.1725L7.852 21.526L7.618 21.151C6.6235 19.5805 6.1045 17.7625 6.1045 15.892C6.1045 10.441 10.5385 6.0055 15.9955 6.0055C18.634 6.0055 21.1195 7.0375 22.984 8.902C24.85 10.7725 25.876 13.252 25.876 15.895C25.8715 21.3505 21.4375 25.786 15.9895 25.786V25.7875ZM21.409 18.382C21.1135 18.232 19.651 17.515 19.3795 17.416C19.108 17.317 18.91 17.266 18.709 17.566C18.5125 17.8615 17.941 18.532 17.767 18.733C17.593 18.9295 17.4205 18.958 17.125 18.808C16.8295 18.658 15.868 18.3445 14.734 17.332C13.852 16.5445 13.2535 15.5695 13.0795 15.274C12.9055 14.9785 13.06 14.815 13.2115 14.6695C13.348 14.5375 13.507 14.323 13.657 14.149C13.807 13.975 13.8535 13.8535 13.9525 13.6525C14.0515 13.456 14.0035 13.282 13.9285 13.132C13.8535 12.982 13.258 11.5195 13.015 10.924C12.7765 10.342 12.5275 10.423 12.3445 10.4125C12.1705 10.4035 11.974 10.4035 11.7775 10.4035C11.581 10.4035 11.257 10.4785 10.9855 10.774C10.714 11.0695 9.9445 11.791 9.9445 13.2535C9.9445 14.716 11.008 16.1275 11.158 16.3285C11.308 16.525 13.2535 19.5295 16.234 20.815C16.942 21.1195 17.4955 21.3025 17.926 21.4435C18.6385 21.6685 19.285 21.6355 19.7965 21.5605C20.368 21.4765 21.5545 20.8435 21.8035 20.149C22.0525 19.4545 22.0525 18.8605 21.9775 18.7375C21.907 18.6055 21.7105 18.532 21.4105 18.3805L21.409 18.382Z" fill="black"/>
</svg>
